<mxfile host="app.diagrams.net" agent="Mozilla/5.0 (Windows NT 10.0; Win64; x64; rv:132.0) Gecko/20100101 Firefox/132.0" version="24.8.4">
  <diagram name="Page-1" id="c4acf3e9-155e-7222-9cf6-157b1a14988f">
    <mxGraphModel dx="1290" dy="1630" grid="1" gridSize="10" guides="1" tooltips="1" connect="1" arrows="1" fold="1" page="1" pageScale="1" pageWidth="850" pageHeight="1100" background="none" math="0" shadow="0">
      <root>
        <mxCell id="0" />
        <mxCell id="1" parent="0" />
        <mxCell id="17acba5748e5396b-20" value="User" style="swimlane;html=1;fontStyle=0;childLayout=stackLayout;horizontal=1;startSize=26;fillColor=none;horizontalStack=0;resizeParent=1;resizeLast=0;collapsible=1;marginBottom=0;swimlaneFillColor=#ffffff;rounded=0;shadow=0;comic=0;labelBackgroundColor=none;strokeWidth=1;fontFamily=Verdana;fontSize=10;align=center;" parent="1" vertex="1">
          <mxGeometry x="80" y="40" width="160" height="122" as="geometry" />
        </mxCell>
        <mxCell id="47DNQcjLyfp37vdKlu38-13" value="+ id: long" style="text;html=1;strokeColor=none;fillColor=none;align=left;verticalAlign=top;spacingLeft=4;spacingRight=4;whiteSpace=wrap;overflow=hidden;rotatable=0;points=[[0,0.5],[1,0.5]];portConstraint=eastwest;" vertex="1" parent="17acba5748e5396b-20">
          <mxGeometry y="26" width="160" height="32" as="geometry" />
        </mxCell>
        <mxCell id="47DNQcjLyfp37vdKlu38-14" value="+ name: String" style="text;html=1;strokeColor=none;fillColor=none;align=left;verticalAlign=top;spacingLeft=4;spacingRight=4;whiteSpace=wrap;overflow=hidden;rotatable=0;points=[[0,0.5],[1,0.5]];portConstraint=eastwest;" vertex="1" parent="17acba5748e5396b-20">
          <mxGeometry y="58" width="160" height="32" as="geometry" />
        </mxCell>
        <mxCell id="47DNQcjLyfp37vdKlu38-15" value="+ surname: String" style="text;html=1;strokeColor=none;fillColor=none;align=left;verticalAlign=top;spacingLeft=4;spacingRight=4;whiteSpace=wrap;overflow=hidden;rotatable=0;points=[[0,0.5],[1,0.5]];portConstraint=eastwest;" vertex="1" parent="17acba5748e5396b-20">
          <mxGeometry y="90" width="160" height="32" as="geometry" />
        </mxCell>
        <mxCell id="47DNQcjLyfp37vdKlu38-1" value="GlycemicValues" style="swimlane;html=1;fontStyle=0;childLayout=stackLayout;horizontal=1;startSize=26;fillColor=none;horizontalStack=0;resizeParent=1;resizeLast=0;collapsible=1;marginBottom=0;swimlaneFillColor=#ffffff;rounded=0;shadow=0;comic=0;labelBackgroundColor=none;strokeWidth=1;fontFamily=Verdana;fontSize=10;align=center;" vertex="1" parent="1">
          <mxGeometry x="520" y="40" width="160" height="186" as="geometry" />
        </mxCell>
        <mxCell id="47DNQcjLyfp37vdKlu38-9" value="+ id: long" style="text;html=1;strokeColor=none;fillColor=none;align=left;verticalAlign=top;spacingLeft=4;spacingRight=4;whiteSpace=wrap;overflow=hidden;rotatable=0;points=[[0,0.5],[1,0.5]];portConstraint=eastwest;" vertex="1" parent="47DNQcjLyfp37vdKlu38-1">
          <mxGeometry y="26" width="160" height="32" as="geometry" />
        </mxCell>
        <mxCell id="47DNQcjLyfp37vdKlu38-4" value="+ dateTime: LocalDateTime" style="text;html=1;strokeColor=none;fillColor=none;align=left;verticalAlign=top;spacingLeft=4;spacingRight=4;whiteSpace=wrap;overflow=hidden;rotatable=0;points=[[0,0.5],[1,0.5]];portConstraint=eastwest;" vertex="1" parent="47DNQcjLyfp37vdKlu38-1">
          <mxGeometry y="58" width="160" height="32" as="geometry" />
        </mxCell>
        <mxCell id="47DNQcjLyfp37vdKlu38-10" value="+ insulinType: String" style="text;html=1;strokeColor=none;fillColor=none;align=left;verticalAlign=top;spacingLeft=4;spacingRight=4;whiteSpace=wrap;overflow=hidden;rotatable=0;points=[[0,0.5],[1,0.5]];portConstraint=eastwest;" vertex="1" parent="47DNQcjLyfp37vdKlu38-1">
          <mxGeometry y="90" width="160" height="32" as="geometry" />
        </mxCell>
        <mxCell id="47DNQcjLyfp37vdKlu38-11" value="+ glycemia: int" style="text;html=1;strokeColor=none;fillColor=none;align=left;verticalAlign=top;spacingLeft=4;spacingRight=4;whiteSpace=wrap;overflow=hidden;rotatable=0;points=[[0,0.5],[1,0.5]];portConstraint=eastwest;" vertex="1" parent="47DNQcjLyfp37vdKlu38-1">
          <mxGeometry y="122" width="160" height="32" as="geometry" />
        </mxCell>
        <mxCell id="47DNQcjLyfp37vdKlu38-12" value="+ carbohydrate: int" style="text;html=1;strokeColor=none;fillColor=none;align=left;verticalAlign=top;spacingLeft=4;spacingRight=4;whiteSpace=wrap;overflow=hidden;rotatable=0;points=[[0,0.5],[1,0.5]];portConstraint=eastwest;" vertex="1" parent="47DNQcjLyfp37vdKlu38-1">
          <mxGeometry y="154" width="160" height="32" as="geometry" />
        </mxCell>
        <mxCell id="47DNQcjLyfp37vdKlu38-18" value="" style="edgeStyle=none;rounded=0;html=1;jettySize=auto;orthogonalLoop=1;strokeColor=#404040;strokeWidth=2;fontColor=#000000;jumpStyle=none;endArrow=none;endFill=0;startArrow=none;dashed=1;" edge="1" parent="1">
          <mxGeometry width="100" relative="1" as="geometry">
            <mxPoint x="40" as="sourcePoint" />
            <mxPoint x="360" as="targetPoint" />
          </mxGeometry>
        </mxCell>
        <mxCell id="47DNQcjLyfp37vdKlu38-30" value="user-service" style="edgeLabel;html=1;align=center;verticalAlign=middle;resizable=0;points=[];" vertex="1" connectable="0" parent="47DNQcjLyfp37vdKlu38-18">
          <mxGeometry x="-0.05" y="1" relative="1" as="geometry">
            <mxPoint y="-9" as="offset" />
          </mxGeometry>
        </mxCell>
        <mxCell id="47DNQcjLyfp37vdKlu38-19" value="" style="edgeStyle=none;rounded=0;html=1;jettySize=auto;orthogonalLoop=1;strokeColor=#404040;strokeWidth=2;fontColor=#000000;jumpStyle=none;endArrow=none;endFill=0;startArrow=none;dashed=1;" edge="1" parent="1">
          <mxGeometry width="100" relative="1" as="geometry">
            <mxPoint x="40" y="240" as="sourcePoint" />
            <mxPoint x="360" y="240" as="targetPoint" />
            <Array as="points">
              <mxPoint x="120" y="240" />
              <mxPoint x="200" y="240" />
            </Array>
          </mxGeometry>
        </mxCell>
        <mxCell id="47DNQcjLyfp37vdKlu38-20" value="" style="edgeStyle=none;rounded=0;html=1;jettySize=auto;orthogonalLoop=1;strokeColor=#404040;strokeWidth=2;fontColor=#000000;jumpStyle=none;endArrow=none;endFill=0;startArrow=none;dashed=1;" edge="1" parent="1">
          <mxGeometry width="100" relative="1" as="geometry">
            <mxPoint x="360" as="sourcePoint" />
            <mxPoint x="360" y="240" as="targetPoint" />
          </mxGeometry>
        </mxCell>
        <mxCell id="47DNQcjLyfp37vdKlu38-21" value="" style="edgeStyle=none;rounded=0;html=1;jettySize=auto;orthogonalLoop=1;strokeColor=#404040;strokeWidth=2;fontColor=#000000;jumpStyle=none;endArrow=none;endFill=0;startArrow=none;dashed=1;" edge="1" parent="1">
          <mxGeometry width="100" relative="1" as="geometry">
            <mxPoint x="40" as="sourcePoint" />
            <mxPoint x="40" y="240" as="targetPoint" />
          </mxGeometry>
        </mxCell>
        <mxCell id="47DNQcjLyfp37vdKlu38-26" value="" style="edgeStyle=none;rounded=0;html=1;jettySize=auto;orthogonalLoop=1;strokeColor=#404040;strokeWidth=2;fontColor=#000000;jumpStyle=none;endArrow=none;endFill=0;startArrow=none;dashed=1;" edge="1" parent="1">
          <mxGeometry width="100" relative="1" as="geometry">
            <mxPoint x="480" as="sourcePoint" />
            <mxPoint x="800" as="targetPoint" />
          </mxGeometry>
        </mxCell>
        <mxCell id="47DNQcjLyfp37vdKlu38-31" value="calculation-service" style="edgeLabel;html=1;align=center;verticalAlign=middle;resizable=0;points=[];" vertex="1" connectable="0" parent="47DNQcjLyfp37vdKlu38-26">
          <mxGeometry x="-0.0187" y="6" relative="1" as="geometry">
            <mxPoint y="-4" as="offset" />
          </mxGeometry>
        </mxCell>
        <mxCell id="47DNQcjLyfp37vdKlu38-27" value="" style="edgeStyle=none;rounded=0;html=1;jettySize=auto;orthogonalLoop=1;strokeColor=#404040;strokeWidth=2;fontColor=#000000;jumpStyle=none;endArrow=none;endFill=0;startArrow=none;dashed=1;" edge="1" parent="1">
          <mxGeometry width="100" relative="1" as="geometry">
            <mxPoint x="480" y="280" as="sourcePoint" />
            <mxPoint x="800" y="280" as="targetPoint" />
          </mxGeometry>
        </mxCell>
        <mxCell id="47DNQcjLyfp37vdKlu38-28" value="" style="edgeStyle=none;rounded=0;html=1;jettySize=auto;orthogonalLoop=1;strokeColor=#404040;strokeWidth=2;fontColor=#000000;jumpStyle=none;endArrow=none;endFill=0;startArrow=none;dashed=1;" edge="1" parent="1">
          <mxGeometry width="100" relative="1" as="geometry">
            <mxPoint x="800" as="sourcePoint" />
            <mxPoint x="800" y="280" as="targetPoint" />
          </mxGeometry>
        </mxCell>
        <mxCell id="47DNQcjLyfp37vdKlu38-29" value="" style="edgeStyle=none;rounded=0;html=1;jettySize=auto;orthogonalLoop=1;strokeColor=#404040;strokeWidth=2;fontColor=#000000;jumpStyle=none;endArrow=none;endFill=0;startArrow=none;dashed=1;" edge="1" parent="1">
          <mxGeometry width="100" relative="1" as="geometry">
            <mxPoint x="480" as="sourcePoint" />
            <mxPoint x="480" y="280" as="targetPoint" />
          </mxGeometry>
        </mxCell>
        <mxCell id="47DNQcjLyfp37vdKlu38-36" value="" style="edgeStyle=none;rounded=0;html=1;jettySize=auto;orthogonalLoop=1;strokeColor=#404040;strokeWidth=2;fontColor=#000000;jumpStyle=none;endArrow=none;endFill=0;startArrow=none;dashed=1;" edge="1" parent="1">
          <mxGeometry width="100" relative="1" as="geometry">
            <mxPoint x="40" y="360" as="sourcePoint" />
            <mxPoint x="200" y="360" as="targetPoint" />
          </mxGeometry>
        </mxCell>
        <mxCell id="47DNQcjLyfp37vdKlu38-37" value="calculation-service" style="edgeLabel;html=1;align=center;verticalAlign=middle;resizable=0;points=[];" vertex="1" connectable="0" parent="47DNQcjLyfp37vdKlu38-36">
          <mxGeometry x="-0.05" y="1" relative="1" as="geometry">
            <mxPoint y="-9" as="offset" />
          </mxGeometry>
        </mxCell>
        <mxCell id="47DNQcjLyfp37vdKlu38-38" value="" style="edgeStyle=none;rounded=0;html=1;jettySize=auto;orthogonalLoop=1;strokeColor=#404040;strokeWidth=2;fontColor=#000000;jumpStyle=none;endArrow=none;endFill=0;startArrow=none;dashed=1;" edge="1" parent="1">
          <mxGeometry width="100" relative="1" as="geometry">
            <mxPoint x="40" y="480" as="sourcePoint" />
            <mxPoint x="200" y="480" as="targetPoint" />
          </mxGeometry>
        </mxCell>
        <mxCell id="47DNQcjLyfp37vdKlu38-39" value="" style="edgeStyle=none;rounded=0;html=1;jettySize=auto;orthogonalLoop=1;strokeColor=#404040;strokeWidth=2;fontColor=#000000;jumpStyle=none;endArrow=none;endFill=0;startArrow=none;dashed=1;" edge="1" parent="1">
          <mxGeometry width="100" relative="1" as="geometry">
            <mxPoint x="200" y="360" as="sourcePoint" />
            <mxPoint x="200" y="480" as="targetPoint" />
            <Array as="points">
              <mxPoint x="200" y="420" />
            </Array>
          </mxGeometry>
        </mxCell>
        <mxCell id="47DNQcjLyfp37vdKlu38-40" value="" style="edgeStyle=none;rounded=0;html=1;jettySize=auto;orthogonalLoop=1;strokeColor=#404040;strokeWidth=2;fontColor=#000000;jumpStyle=none;endArrow=none;endFill=0;startArrow=none;dashed=1;" edge="1" parent="1">
          <mxGeometry width="100" relative="1" as="geometry">
            <mxPoint x="40" y="360" as="sourcePoint" />
            <mxPoint x="40" y="480" as="targetPoint" />
          </mxGeometry>
        </mxCell>
        <mxCell id="47DNQcjLyfp37vdKlu38-41" value="" style="endArrow=none;dashed=1;html=1;rounded=0;" edge="1" parent="1">
          <mxGeometry width="50" height="50" relative="1" as="geometry">
            <mxPoint x="120" y="350" as="sourcePoint" />
            <mxPoint x="120" y="240" as="targetPoint" />
          </mxGeometry>
        </mxCell>
        <mxCell id="47DNQcjLyfp37vdKlu38-42" value="" style="endArrow=none;dashed=1;html=1;rounded=0;" edge="1" parent="1">
          <mxGeometry width="50" height="50" relative="1" as="geometry">
            <mxPoint x="520" y="400" as="sourcePoint" />
            <mxPoint x="520" y="280" as="targetPoint" />
          </mxGeometry>
        </mxCell>
        <mxCell id="47DNQcjLyfp37vdKlu38-43" value="" style="endArrow=none;dashed=1;html=1;rounded=0;" edge="1" parent="1">
          <mxGeometry width="50" height="50" relative="1" as="geometry">
            <mxPoint x="200" y="400" as="sourcePoint" />
            <mxPoint x="520" y="400" as="targetPoint" />
          </mxGeometry>
        </mxCell>
        <mxCell id="47DNQcjLyfp37vdKlu38-44" value="" style="endArrow=none;dashed=1;html=1;rounded=0;" edge="1" parent="1">
          <mxGeometry width="50" height="50" relative="1" as="geometry">
            <mxPoint x="365" y="40" as="sourcePoint" />
            <mxPoint x="485" y="40" as="targetPoint" />
          </mxGeometry>
        </mxCell>
      </root>
    </mxGraphModel>
  </diagram>
</mxfile>
